<svg id="visual" viewBox="0 0 960 540" width="960" height="540" xmlns="http://www.w3.org/2000/svg" xmlns:xlink="http://www.w3.org/1999/xlink" version="1.1"><rect x="0" y="0" width="960" height="540" fill="#facef1"></rect><defs><linearGradient id="grad1_0" x1="43.8%" y1="100%" x2="100%" y2="0%"><stop offset="14.444444444444446%" stop-color="#c62368" stop-opacity="1"></stop><stop offset="85.55555555555554%" stop-color="#c62368" stop-opacity="1"></stop></linearGradient></defs><defs><linearGradient id="grad1_1" x1="43.8%" y1="100%" x2="100%" y2="0%"><stop offset="14.444444444444446%" stop-color="#c62368" stop-opacity="1"></stop><stop offset="85.55555555555554%" stop-color="#da669c" stop-opacity="1"></stop></linearGradient></defs><defs><linearGradient id="grad1_2" x1="43.8%" y1="100%" x2="100%" y2="0%"><stop offset="14.444444444444446%" stop-color="#ea9bca" stop-opacity="1"></stop><stop offset="85.55555555555554%" stop-color="#da669c" stop-opacity="1"></stop></linearGradient></defs><defs><linearGradient id="grad1_3" x1="43.8%" y1="100%" x2="100%" y2="0%"><stop offset="14.444444444444446%" stop-color="#ea9bca" stop-opacity="1"></stop><stop offset="85.55555555555554%" stop-color="#facef1" stop-opacity="1"></stop></linearGradient></defs><defs><linearGradient id="grad2_0" x1="0%" y1="100%" x2="56.3%" y2="0%"><stop offset="14.444444444444446%" stop-color="#c62368" stop-opacity="1"></stop><stop offset="85.55555555555554%" stop-color="#c62368" stop-opacity="1"></stop></linearGradient></defs><defs><linearGradient id="grad2_1" x1="0%" y1="100%" x2="56.3%" y2="0%"><stop offset="14.444444444444446%" stop-color="#da669c" stop-opacity="1"></stop><stop offset="85.55555555555554%" stop-color="#c62368" stop-opacity="1"></stop></linearGradient></defs><defs><linearGradient id="grad2_2" x1="0%" y1="100%" x2="56.3%" y2="0%"><stop offset="14.444444444444446%" stop-color="#da669c" stop-opacity="1"></stop><stop offset="85.55555555555554%" stop-color="#ea9bca" stop-opacity="1"></stop></linearGradient></defs><defs><linearGradient id="grad2_3" x1="0%" y1="100%" x2="56.3%" y2="0%"><stop offset="14.444444444444446%" stop-color="#facef1" stop-opacity="1"></stop><stop offset="85.55555555555554%" stop-color="#ea9bca" stop-opacity="1"></stop></linearGradient></defs><g transform="translate(960, 540)"><path d="M-378 0C-350.3 -42 -322.6 -84 -303 -125.5C-283.5 -167 -272 -208 -248.2 -248.2C-224.3 -288.4 -188.1 -327.7 -144.7 -349.2C-101.2 -370.7 -50.6 -374.4 0 -378L0 0Z" fill="#f2b5de"></path><path d="M-283.5 0C-262.7 -31.5 -241.9 -63 -227.3 -94.1C-212.6 -125.3 -204 -156 -186.1 -186.1C-168.3 -216.3 -141.1 -245.8 -108.5 -261.9C-75.9 -278 -38 -280.8 0 -283.5L0 0Z" fill="#e281b4"></path><path d="M-189 0C-175.1 -21 -161.3 -42 -151.5 -62.8C-141.7 -83.5 -136 -104 -124.1 -124.1C-112.2 -144.2 -94 -163.9 -72.3 -174.6C-50.6 -185.4 -25.3 -187.2 0 -189L0 0Z" fill="#d14982"></path><path d="M-94.5 0C-87.6 -10.5 -80.6 -21 -75.8 -31.4C-70.9 -41.8 -68 -52 -62 -62C-56.1 -72.1 -47 -81.9 -36.2 -87.3C-25.3 -92.7 -12.7 -93.6 0 -94.5L0 0Z" fill="#c62368"></path></g><g transform="translate(0, 0)"><path d="M378 0C374.8 50.9 371.5 101.8 349.2 144.7C326.9 187.5 285.5 222.4 244.7 244.7C203.8 266.9 163.5 276.5 122.8 296.6C82.2 316.7 41.1 347.3 0 378L0 0Z" fill="#f2b5de"></path><path d="M283.5 0C281.1 38.2 278.7 76.3 261.9 108.5C245.2 140.7 214.1 166.8 183.5 183.5C152.9 200.2 122.6 207.3 92.1 222.4C61.6 237.5 30.8 260.5 0 283.5L0 0Z" fill="#e281b4"></path><path d="M189 0C187.4 25.4 185.8 50.9 174.6 72.3C163.5 93.8 142.8 111.2 122.3 122.3C101.9 133.4 81.8 138.2 61.4 148.3C41.1 158.3 20.5 173.7 0 189L0 0Z" fill="#d14982"></path><path d="M94.5 0C93.7 12.7 92.9 25.4 87.3 36.2C81.7 46.9 71.4 55.6 61.2 61.2C51 66.7 40.9 69.1 30.7 74.1C20.5 79.2 10.3 86.8 0 94.5L0 0Z" fill="#c62368"></path></g></svg>