<svg xmlns="http://www.w3.org/2000/svg" version="1.1" xmlns:xlink="http://www.w3.org/1999/xlink" viewBox="0 0 1422 800" style="overflow: hidden; display: block;" width="1422" height="800"><defs></defs><g id="two-0" transform="matrix(1 0 0 1 0 0)" opacity="1"></g><path d="M 309.9258851990654 328.1591663238376 Q 309.9258851990654 328.1591663238376 320.36571411688726 326.60072533661685 330.8055430347091 325.0422843493961 347.91912211424176 326.2845012925379 365.0327011937744 327.5267182356797 391.5193300148435 328.7803066476022 418.00595883591257 330.03389505952464 452.64664039681304 330.7563611076092 487.28732195771346 331.4788271556938 528.6268711256305 331.8735928254722 569.9664202935475 332.26835849525065 614.1142670522993 329.2751507305472 658.2621138110512 326.2819429658437 692.3469263981578 321.0718992577371 726.4317389852646 315.8618555496305 750.6479889763755 311.0579925734113 774.8642389674862 306.25412959719216 774.8652721779345 306.2590216802015 774.8663053883826 306.2639137632108 774.8673385988307 306.26880584622006 774.8683718092789 306.2736979292294 750.7463347775949 311.6789060382091 726.6242977459109 317.08411414718876 692.5097810617817 322.6135268901244 658.3952643776524 328.14293963306005 614.1756097318876 331.4449577693613 569.9559550861228 334.7469759056625 528.6009467213535 334.77477935434445 487.2459383565842 334.80258280302644 452.5401656126345 334.66160833088406 417.83439286868486 334.5206338587417 391.2025280617289 333.7425975171889 364.57066325477297 332.96456117563616 347.7751847743386 331.3238970495946 330.9797062939042 329.68323292355313 320.4531800786694 328.93119223540464 309.9266538634346 328.17915154725614 309.92626953125 328.1691589355469 Z" fill="hsl(335, 77%, 50%)"></path></svg>