<svg id="visual" viewBox="0 0 960 540" width="960" height="540" xmlns="http://www.w3.org/2000/svg" xmlns:xlink="http://www.w3.org/1999/xlink" version="1.1"><path d="M0 349L22.8 336.3C45.7 323.7 91.3 298.3 137 263.2C182.7 228 228.3 183 274 169C319.7 155 365.3 172 411.2 201.5C457 231 503 273 548.8 295.3C594.7 317.7 640.3 320.3 686 301.5C731.7 282.7 777.3 242.3 823 239.5C868.7 236.7 914.3 271.3 937.2 288.7L960 306L960 0L937.2 0C914.3 0 868.7 0 823 0C777.3 0 731.7 0 686 0C640.3 0 594.7 0 548.8 0C503 0 457 0 411.2 0C365.3 0 319.7 0 274 0C228.3 0 182.7 0 137 0C91.3 0 45.7 0 22.8 0L0 0Z" fill="#C62368" stroke-linecap="round" stroke-linejoin="miter"></path></svg>